<?xml version="1.0" encoding="utf-8"?>
<!-- Generator: Adobe Illustrator 21.0.0, SVG Export Plug-In . SVG Version: 6.00 Build 0)  -->
<svg version="1.1" id="Layer_1" xmlns="http://www.w3.org/2000/svg" xmlns:xlink="http://www.w3.org/1999/xlink" x="0px" y="0px"
	 viewBox="0 0 127 21" style="enable-background:new 0 0 127 21;" xml:space="preserve">
<style type="text/css">
	.st0{fill:#1A84FF;}
</style>
<path class="st0" d="M0,20h4.5l1.6-4.1h7.8l1.6,4.1h4.8L12.2,0.4h-4L0,20z M10,6.1l2.2,5.5H7.8L10,6.1z"/>
<path d="M25.6,20c1.1,0,2.9,0.1,5.5,0.1c4.9,0,7.6-2.5,7.6-6.6c0-3.7-2.6-6-6.4-6c-0.6,0-1.7,0.1-2.2,0.2V4.6h7.3V0.4H25.6V20z
	 M32,11.7c1.6,0,2.2,1,2.2,2.2c0,1.1-0.6,2-2.4,2c-0.5,0-1-0.1-1.7-0.1v-3.9C30.8,11.8,31.4,11.7,32,11.7z M48.2,20l8.7-12.2V20h4.5
	V0.4h-3.9l-8.7,12.2V0.4h-4.5V20H48.2z M66.7,4.6h5.9V20h4.5V4.6h5.9V0.4H66.7V4.6z M106.5,0.4H102L98,10l-5.5-9.6h-5.1l8.4,14
	L95.6,15c-0.3,0.6-0.7,0.8-1.5,0.8c-0.6,0-0.8-0.1-1.4-0.5l-1.6,3.8c0.5,0.4,1.8,0.9,3,0.9c2.7,0,4.4-1.7,5.7-4.6L106.5,0.4z
	 M115.6,20v-6.7c0.7,0.1,1.8,0.1,2.2,0.1c4.5,0,7.3-3.1,7.3-6.6c0-3.4-2-6.5-7.9-6.5c-1.5,0-4.9,0.1-6,0.1V20H115.6z M117.6,4.5
	c1.6,0,2.7,0.5,2.7,2.3c0,1.9-1.5,2.4-2.6,2.4c-0.6,0-1.4-0.1-2-0.1V4.6C116.5,4.6,117,4.5,117.6,4.5z"/>
</svg>
